# xmcd
#
# Track frame offsets:
#	150
#	17240
#	31974
#	49460
#	65936
#	79957
#	97003
#	111712
#	127089
#	144604
#	168001
#	187478
#	210516
#	233193
#	256349
#	274518
#	301865
#
# Disc length: 4246 seconds
#
# Revision: 1
# Processed by: cddbd v1.5.1PL0 Copyright (c) Steve Scherf et al.
# Submitted via: audiograbber 1.83.01
#
DISCID=07109411
DTITLE=UB 40 - The Singles Collection
DYEAR=2000
DGENRE=
TTITLE0=Sufferin
TTITLE1=NKomo a gogo
TTITLE2=Theme from labour of love
TTITLE3=Mek ya rok
TTITLE4=Rat in mi kitchen
TTITLE5=Where did I go wrong
TTITLE6=Dread dread time
TTITLE7=Mabye tomorrow
TTITLE8=Chronic
TTITLE9=One a penny
TTITLE10=Sing our own song
TTITLE11=Jungle love
TTITLE12=Lickwood
TTITLE13=Frilla
TTITLE14=Gator(instr)
TTITLE15=Mispent youth
TTITLE16=Don't blame me(live)
EXTD=
EXTT0=
EXTT1=
EXTT2=
EXTT3=
EXTT4=
EXTT5=
EXTT6=
EXTT7=
EXTT8=
EXTT9=
EXTT10=
EXTT11=
EXTT12=
EXTT13=
EXTT14=
EXTT15=
EXTT16=
PLAYORDER=
